<svg width="64" height="66" viewBox="0 0 64 66" fill="none" xmlns="http://www.w3.org/2000/svg">
<g clip-path="url(#clip0_1_814)">
<path d="M50.6667 1H13.3333C5.96954 1 0 6.96923 0 14.3327V51.6641C0 59.0275 5.96954 64.9967 13.3333 64.9967H50.6667C58.0305 64.9967 64 59.0275 64 51.6641V14.3327C64 6.96923 58.0305 1 50.6667 1Z" fill="#FF4F00" fill-opacity="0.1"/>
<g clip-path="url(#clip1_1_814)">
<path d="M20.5171 47.7785V42.2871H26.0086" stroke="#FF4F00" stroke-linecap="round" stroke-linejoin="round"/>
<path d="M45.5364 30.8765C46.119 33.9853 45.6531 37.1995 44.2116 40.0148C42.7702 42.8302 40.4349 45.0873 37.5721 46.4321C34.7093 47.7768 31.4811 48.1331 28.394 47.4449C25.3069 46.7568 22.5356 45.0632 20.5149 42.6299M17.4636 36.1244C16.881 33.0156 17.3469 29.8014 18.7884 26.986C20.2298 24.1707 22.5651 21.9136 25.4279 20.5688C28.2907 19.2241 31.5189 18.8678 34.606 19.5559C37.6931 20.2441 40.4644 21.9377 42.4851 24.3709" stroke="#FF4F00" stroke-linecap="round" stroke-linejoin="round"/>
<path d="M42.4829 19.2227V24.7141H36.9914M25.0564 34.2399C24.2792 34.1049 24.2792 32.9889 25.0564 32.8538C26.4326 32.6143 27.7062 31.9704 28.715 31.0042C29.7238 30.038 30.422 28.7933 30.7206 27.4288L30.7671 27.214C30.9354 26.4457 32.0292 26.4412 32.2041 27.2074L32.2617 27.4576C32.5718 28.8159 33.2763 30.0524 34.2868 31.0117C35.2973 31.971 36.5687 32.6103 37.9414 32.8494C38.723 32.9844 38.723 34.1071 37.9414 34.2444C36.569 34.4833 35.2978 35.1223 34.2874 36.0812C33.2769 37.04 32.5722 38.276 32.2617 39.6339L32.2041 39.8819C32.0292 40.6481 30.9354 40.6437 30.7671 39.8753L30.7228 39.6627C30.4239 38.2976 29.725 37.0524 28.7154 36.0862C27.7058 35.12 26.4312 34.4764 25.0542 34.2377L25.0564 34.2399Z" stroke="#FF4F00" stroke-linecap="round" stroke-linejoin="round"/>
</g>
</g>
<defs>
<clipPath id="clip0_1_814">
<rect width="64" height="65.33" fill="white"/>
</clipPath>
<clipPath id="clip1_1_814">
<rect width="31" height="31" fill="white" transform="translate(16 18)"/>
</clipPath>
</defs>
</svg>
